# xmcd
#
# Track frame offsets: 
#        150
#        19138
#        34783
#        54343
#        74690
#        93904
#        107480
#        132135
#        150692
#        168127
#        188659
#        203596
#        213447
#        228462
#
# Disc length: 3228 seconds
#
# Revision: 0
# Processed by: cddbd v1.5.2PL0 Copyright (c) Steve Scherf et al.
# Submitted via: ExactAudioCopy v0.99pb5
#
DISCID=b20c9a0e
DTITLE=Long John Baldry - It Still Ain't Easy
DYEAR=2007
DGENRE=Blues
TTITLE0=It Still Ain't Easy
TTITLE1=Midnight In New Orleans
TTITLE2=One Step Ahead
TTITLE3=I've Never Loved Nobody
TTITLE4=Get It While The Gettin's Good
TTITLE5=What've I Been Drinking
TTITLE6=Insane Asylum
TTITLE7=You Wanna Dance
TTITLE8=Shake That Thang
TTITLE9=Like You Promised
TTITLE10=Busker
TTITLE11=Can't Keep From Crying
TTITLE12=No More
TTITLE13=Soft And Furry
EXTD=
EXTT0=
EXTT1=
EXTT2=
EXTT3=
EXTT4=
EXTT5=
EXTT6=
EXTT7=
EXTT8=
EXTT9=
EXTT10=
EXTT11=
EXTT12=
EXTT13=
PLAYORDER=
